<svg width="72" height="72" viewBox="0 0 72 72" fill="none" xmlns="http://www.w3.org/2000/svg">
<path d="M36.25 0C25.0664 0 16 12.5921 16 28.125V65.25H56.5V28.125C56.5 12.5921 47.4336 0 36.25 0Z" fill="#394D5C"/>
<path d="M36.25 40.5C44.3272 40.5 50.875 31.4338 50.875 20.25C50.875 9.06623 44.3272 0 36.25 0C28.1728 0 21.625 9.06623 21.625 20.25C21.625 31.4338 28.1728 40.5 36.25 40.5Z" fill="#F4F4E6"/>
<path d="M30.625 19.125C32.489 19.125 34 18.1176 34 16.875C34 15.6324 32.489 14.625 30.625 14.625C28.761 14.625 27.25 15.6324 27.25 16.875C27.25 18.1176 28.761 19.125 30.625 19.125Z" fill="#394D5C"/>
<path d="M41.875 19.125C43.739 19.125 45.25 18.1176 45.25 16.875C45.25 15.6324 43.739 14.625 41.875 14.625C40.011 14.625 38.5 15.6324 38.5 16.875C38.5 18.1176 40.011 19.125 41.875 19.125Z" fill="#394D5C"/>
<path d="M40.75 32.625H31.75C31.4516 32.625 31.1655 32.5065 30.9545 32.2955C30.7435 32.0845 30.625 31.7984 30.625 31.5C30.625 31.2016 30.7435 30.9155 30.9545 30.7045C31.1655 30.4935 31.4516 30.375 31.75 30.375H40.75C41.0484 30.375 41.3345 30.4935 41.5455 30.7045C41.7565 30.9155 41.875 31.2016 41.875 31.5C41.875 31.7984 41.7565 32.0845 41.5455 32.2955C41.3345 32.5065 41.0484 32.625 40.75 32.625Z" fill="#F98C96"/>
<path d="M37.375 37.125H35.125C34.8266 37.125 34.5405 37.0065 34.3295 36.7955C34.1185 36.5845 34 36.2984 34 36C34 35.7016 34.1185 35.4155 34.3295 35.2045C34.5405 34.9935 34.8266 34.875 35.125 34.875H37.375C37.6734 34.875 37.9595 34.9935 38.1705 35.2045C38.3815 35.4155 38.5 35.7016 38.5 36C38.5 36.2984 38.3815 36.5845 38.1705 36.7955C37.9595 37.0065 37.6734 37.125 37.375 37.125Z" fill="#F98C96"/>
<path d="M27.25 52.875V46.125C27.25 45.2299 26.8944 44.3715 26.2615 43.7385C25.6286 43.1056 24.7701 42.75 23.875 42.75C22.9799 42.75 22.1214 43.1056 21.4885 43.7385C20.8556 44.3715 20.5 45.2299 20.5 46.125V56.25C20.5169 56.8697 20.7481 57.4643 21.1543 57.9326C21.5605 58.401 22.1164 58.714 22.7275 58.8184L32.4655 60.2089C32.9359 60.2761 33.4153 60.2414 33.8711 60.1072C34.3269 59.973 34.7486 59.7424 35.1075 59.4309C35.4664 59.1195 35.7541 58.7346 35.9513 58.3022C36.1484 57.8699 36.2503 57.4002 36.25 56.925C36.2499 56.1168 35.9547 55.3364 35.4199 54.7304C34.885 54.1245 34.1472 53.7347 33.3452 53.6344L27.25 52.875Z" fill="#F4F4E6"/>
<path d="M45.25 52.875V46.125C45.25 45.2299 45.6056 44.3715 46.2385 43.7385C46.8715 43.1056 47.7299 42.75 48.625 42.75C49.5201 42.75 50.3785 43.1056 51.0115 43.7385C51.6444 44.3715 52 45.2299 52 46.125V56.25C51.9831 56.8697 51.7519 57.4643 51.3457 57.9326C50.9395 58.401 50.3836 58.714 49.7725 58.8184L40.0345 60.2089C39.5641 60.2761 39.0847 60.2414 38.6289 60.1072C38.1731 59.973 37.7514 59.7424 37.3925 59.4309C37.0336 59.1195 36.7459 58.7346 36.5487 58.3022C36.3516 57.8699 36.2497 57.4002 36.25 56.925C36.2501 56.1168 36.5453 55.3364 37.0801 54.7304C37.615 54.1245 38.3528 53.7347 39.1548 53.6344L45.25 52.875Z" fill="#F4F4E6"/>
<path d="M53.125 31.5H50.875V36H53.125V31.5Z" fill="#AABECE"/>
<path d="M53.125 61.875H50.875V65.25H53.125V61.875Z" fill="#AABECE"/>
<path d="M53.125 38.25H50.875V40.5H53.125V38.25Z" fill="#AABECE"/>
<path d="M28.375 12.375H32.875L30.625 5.625L28.375 12.375Z" fill="#F98C96"/>
<path d="M39.625 12.375H44.125L41.875 5.625L39.625 12.375Z" fill="#F98C96"/>
<path d="M44.125 21.375H39.625L41.875 28.125L44.125 21.375Z" fill="#F98C96"/>
<path d="M32.875 21.375H28.375L30.625 28.125L32.875 21.375Z" fill="#F98C96"/>
</svg>
