<svg width="71" height="71" viewBox="0 0 71 71" fill="none" xmlns="http://www.w3.org/2000/svg">
<path d="M62.125 32.1719V38.8281H8.875V32.1719H4.4375V38.8281V43.2656H66.5625V38.8281V32.1719H62.125Z" fill="#6A7073"/>
<path d="M8.875 23.2969H62.125V34.3906H8.875V23.2969Z" fill="#464C4F"/>
<path d="M24.4062 29.9531H46.5938V34.3906H24.4062V29.9531Z" fill="#596063"/>
<path d="M26.625 21.0781H44.375V29.9531H26.625V21.0781Z" fill="#E9EEF2"/>
<path d="M35.5 21.0781H44.375V29.9531H35.5V21.0781Z" fill="#DADCDE"/>
<path d="M4.4375 43.2656H8.875V67.6719H4.4375V43.2656Z" fill="#596063"/>
<path d="M62.125 43.2656H66.5625V67.6719H62.125V43.2656Z" fill="#596063"/>
<path d="M61.0156 3.32812L62.125 7.76562L57.4947 9.14541L55.3564 9.78191L9.98438 23.2969L8.875 18.8594" fill="#6A7073"/>
<path d="M24.4062 63.2344H46.5938V67.6719H24.4062V63.2344Z" fill="#596063"/>
<path d="M28.8438 63.2344H33.2812V67.6719H28.8438V63.2344Z" fill="#464C4F"/>
<path d="M37.7188 63.2344H42.1562V67.6719H37.7188V63.2344Z" fill="#464C4F"/>
<path d="M8.875 34.3906H62.125V38.8281H8.875V34.3906Z" fill="#E9EEF2"/>
<path d="M13.3125 34.3906H17.75V38.8281H13.3125V34.3906Z" fill="#DADCDE"/>
<path d="M22.1875 34.3906H26.625V38.8281H22.1875V34.3906Z" fill="#DADCDE"/>
<path d="M31.0625 34.3906H35.5V38.8281H31.0625V34.3906Z" fill="#DADCDE"/>
<path d="M39.9375 34.3906H44.375V38.8281H39.9375V34.3906Z" fill="#DADCDE"/>
<path d="M48.8125 34.3906H53.25V38.8281H48.8125V34.3906Z" fill="#DADCDE"/>
<path d="M57.6875 34.3906H62.125V38.8281H57.6875V34.3906Z" fill="#DADCDE"/>
<path d="M66.5625 31.0625H63.2344V23.2969C63.2344 23.0026 63.1175 22.7205 62.9094 22.5124C62.7014 22.3044 62.4192 22.1875 62.125 22.1875H59.7367L57.743 10.2283L62.4412 8.82881C62.7149 8.74725 62.9467 8.56322 63.0882 8.31506C63.2297 8.0669 63.27 7.77372 63.2007 7.49659L62.0913 3.05909C62.055 2.91372 61.9896 2.77721 61.899 2.65782C61.8085 2.53842 61.6947 2.4386 61.5645 2.36438C61.4343 2.29016 61.2905 2.24309 61.1416 2.22599C60.9927 2.2089 60.842 2.22214 60.6983 2.26492L8.55772 17.7962C8.28395 17.8777 8.0522 18.0618 7.91072 18.3099C7.76924 18.5581 7.72894 18.8513 7.79821 19.1284L8.57353 22.2299C8.34107 22.2956 8.13639 22.4353 7.99057 22.6278C7.84476 22.8204 7.76577 23.0553 7.76562 23.2969V31.0625H4.4375C4.14328 31.0625 3.8611 31.1794 3.65305 31.3874C3.44501 31.5955 3.32813 31.8776 3.32812 32.1719V67.6719C3.32813 67.9661 3.44501 68.2483 3.65305 68.4563C3.8611 68.6644 4.14328 68.7812 4.4375 68.7812H8.875C9.16922 68.7812 9.4514 68.6644 9.65945 68.4563C9.86749 68.2483 9.98438 67.9661 9.98438 67.6719V44.375H27.7344V62.125H24.4062C24.112 62.125 23.8299 62.2419 23.6218 62.4499C23.4138 62.658 23.2969 62.9401 23.2969 63.2344V67.6719C23.2969 67.9661 23.4138 68.2483 23.6218 68.4563C23.8299 68.6644 24.112 68.7812 24.4062 68.7812H46.5938C46.888 68.7812 47.1702 68.6644 47.3782 68.4563C47.5862 68.2483 47.7031 67.9661 47.7031 67.6719V63.2344C47.7031 62.9401 47.5862 62.658 47.3782 62.4499C47.1702 62.2419 46.888 62.125 46.5938 62.125H43.2656V44.375H61.0156V67.6719C61.0156 67.9661 61.1325 68.2483 61.3406 68.4563C61.5486 68.6644 61.8308 68.7812 62.125 68.7812H66.5625C66.8567 68.7812 67.1389 68.6644 67.3469 68.4563C67.555 68.2483 67.6719 67.9661 67.6719 67.6719V32.1719C67.6719 31.8776 67.555 31.5955 67.3469 31.3874C67.1389 31.1794 66.8567 31.0625 66.5625 31.0625ZM9.98438 24.4062H25.5156V28.8437H24.4062C24.112 28.8437 23.8299 28.9606 23.6218 29.1687C23.4138 29.3767 23.2969 29.6589 23.2969 29.9531V33.2812H9.98438V24.4062ZM25.5156 33.2812V31.0625H45.4844V33.2812H25.5156ZM43.2656 28.8437H36.6094V22.1875H43.2656V28.8437ZM34.3906 28.8437H27.7344V22.1875H34.3906V28.8437ZM9.98438 35.5H12.2031V37.7187H9.98438V35.5ZM14.4219 35.5H16.6406V37.7187H14.4219V35.5ZM18.8594 35.5H21.0781V37.7187H18.8594V35.5ZM23.2969 35.5H25.5156V37.7187H23.2969V35.5ZM27.7344 35.5H29.9531V37.7187H27.7344V35.5ZM32.1719 35.5H34.3906V37.7187H32.1719V35.5ZM36.6094 35.5H38.8281V37.7187H36.6094V35.5ZM41.0469 35.5H43.2656V37.7187H41.0469V35.5ZM45.4844 35.5H47.7031V37.7187H45.4844V35.5ZM49.9219 35.5H52.1406V37.7187H49.9219V35.5ZM54.3594 35.5H56.5781V37.7187H54.3594V35.5ZM58.7969 35.5H61.0156V37.7187H58.7969V35.5ZM61.0156 32.1719V33.2812H47.7031V29.9531C47.7031 29.6589 47.5862 29.3767 47.3782 29.1687C47.1702 28.9606 46.888 28.8437 46.5938 28.8437H45.4844V24.4062H61.0156V32.1719ZM57.4873 22.1875H45.4844V21.0781C45.4844 20.7839 45.3675 20.5017 45.1594 20.2937C44.9514 20.0856 44.6692 19.9687 44.375 19.9687H26.625C26.3308 19.9687 26.0486 20.0856 25.8406 20.2937C25.6325 20.5017 25.5156 20.7839 25.5156 21.0781V22.1875H17.5947L55.6005 10.8666L57.4873 22.1875ZM60.2208 4.72246L60.7914 7.00541L10.7792 21.9025L10.2086 19.6196L60.2208 4.72246ZM5.54688 33.2812H7.76562V38.8281C7.76562 39.1223 7.88251 39.4045 8.09055 39.6126C8.2986 39.8206 8.58078 39.9375 8.875 39.9375H62.125C62.4192 39.9375 62.7014 39.8206 62.9094 39.6126C63.1175 39.4045 63.2344 39.1223 63.2344 38.8281V33.2812H65.4531V42.1562H5.54688V33.2812ZM7.76562 66.5625H5.54688V44.375H7.76562V66.5625ZM25.5156 64.3437H27.7344V66.5625H25.5156V64.3437ZM41.0469 64.3437V66.5625H38.8281V64.3437H41.0469ZM36.6094 66.5625H34.3906V64.3437H36.6094V66.5625ZM32.1719 66.5625H29.9531V64.3437H32.1719V66.5625ZM45.4844 64.3437V66.5625H43.2656V64.3437H45.4844ZM41.0469 62.125H29.9531V44.375H41.0469V62.125ZM63.2344 66.5625V44.375H65.4531V66.5625H63.2344Z" fill="black"/>
</svg>
